<svg width="96" height="96" xmlns="http://www.w3.org/2000/svg" xmlns:xlink="http://www.w3.org/1999/xlink" xml:space="preserve" overflow="hidden"><g transform="translate(-312 -472)"><path d="M361.15 509.13 361.15 509.13 366.78 511.46C366.981 507.765 370.139 504.933 373.834 505.134 376.408 505.274 378.673 506.879 379.66 509.26 380.615 511.644 380.164 514.362 378.49 516.31L385.27 519.12 385.39 519.17 395.38 495 371.14 485 367.37 494.27 367.37 494.27 367.08 494.96 367 494.64C365.899 491.996 362.868 490.74 360.22 491.83 359.059 492.331 358.113 493.228 357.55 494.36 356.614 497.063 358.046 500.014 360.749 500.95 361.948 501.366 363.258 501.326 364.43 500.84L364.75 500.71 364.56 501.17 364.56 501.17Z"/><path d="M358.62 544.6C361.242 543.732 362.664 540.904 361.796 538.282 360.929 535.661 358.1 534.239 355.479 535.106 354.483 535.436 353.615 536.07 353 536.92L353 527.92 346.93 527.92C346.974 528.252 346.997 528.586 347 528.92 347 533.338 343.418 536.92 339 536.92 334.582 536.92 331 533.338 331 528.92 331.003 528.586 331.026 528.252 331.07 527.92L325 527.92 325 553.92 353 553.92 353 542.92C353.112 543.073 353.232 543.22 353.36 543.36 353.414 543.463 353.478 543.56 353.55 543.65 354.732 544.782 356.418 545.218 358 544.8 358.17 544.8 358.33 544.7 358.49 544.65Z"/><path d="M371 527.9C371.155 527.787 371.302 527.664 371.44 527.53 371.549 527.488 371.648 527.424 371.73 527.34 372.959 526.023 373.366 524.137 372.79 522.43L372.79 522.28C371.861 519.68 369 518.325 366.399 519.254 363.799 520.183 362.444 523.045 363.373 525.645 363.691 526.535 364.255 527.317 365 527.9L356 527.9 356 532C356.332 531.96 356.666 531.94 357 531.94 361.418 531.94 365 535.522 365 539.94 365 544.358 361.418 547.94 357 547.94 356.666 547.937 356.332 547.914 356 547.87L356 553.9 382 553.9 382 527.9Z"/><path d="M353 507.28 353 496.9 325 496.9 325 524.9 336 524.9C334.741 525.844 334 527.326 334 528.9 334 531.661 336.239 533.9 339 533.9 341.761 533.9 344 531.661 344 528.9 344 527.326 343.259 525.844 342 524.9L353 524.9 353 514.62C350.849 516.638 347.501 516.638 345.35 514.62 343.323 512.64 343.285 509.393 345.264 507.366 345.293 507.337 345.321 507.308 345.35 507.28 347.501 505.262 350.849 505.262 353 507.28Z"/></g></svg>